<svg fill="none" xmlns="http://www.w3.org/2000/svg" viewBox="0 0 56 56">
    <style>
        @media (prefers-color-scheme: dark) {
            .-colorScheme-light { fill: #FFFCFA }
        }
    </style>
    <path class="-colorScheme-light" fill-rule="evenodd" clip-rule="evenodd" d="M6.38551 50.6088H49.6145c1.7634 0 3.3598-.7031 4.5154-1.8399C55.2853 47.6322 56 46.062 56 44.3276V18.4738c0-1.7344-.7147-3.3047-1.8701-4.4413-1.1556-1.1368-2.752-1.8399-4.5154-1.8399H6.38551c-1.76338 0-3.35985.7031-4.51545 1.8399C.714673 15.1691 0 16.7394 0 18.4738v25.8538c0 1.7344.714673 3.3046 1.87006 4.4413 1.1556 1.1368 2.75207 1.8399 4.51545 1.8399zm44.09889-5.4246c-.2226.219-.5302.3545-.8699.3545H6.38552c-.33973 0-.64727-.1355-.8699-.3545-.22284-.2192-.36062-.5221-.36062-.8566V18.4738c0-.3345.13778-.6374.36062-.8566.22263-.219.53017-.3545.8699-.3545H49.6145c.3397 0 .6473.1355.8699.3545.2228.2192.3606.5221.3606.8566v25.8538c0 .3345-.1378.6374-.3606.8566zM8.84668 52.6733h7.78872c0 1.8373-1.7436 3.3267-3.8944 3.3267-2.1508 0-3.89432-1.4894-3.89432-3.3267zM39.4453 52.6733h7.2324c0 1.8373-1.619 3.3267-3.6162 3.3267s-3.6162-1.4894-3.6162-3.3267z" fill="#3A255D"/>
    <path class="-colorScheme-light" d="M21.9157 5.18262V9.9802h-4.7243V5.18262c0-1.43089.5629-2.72622 1.4728-3.6639C19.5748.580263 20.8328 0 22.2222 0h11.6355c1.3895 0 2.6475.580263 3.5581 1.51872.9099.93768 1.4728 2.23301 1.4728 3.6639V9.9802h-4.7243V5.18262c0-.08809-.0345-.16793-.0906-.2257-.0552-.05697-.1316-.0924-.216-.0924H22.2222c-.0844 0-.1607.03543-.216.0924-.056.05777-.0905.13761-.0905.2257zM10.5156 15.5247h3.33803v32.7129H10.5156zM42.2266 15.5247h3.33802v32.7129H42.2266z" fill="#3A255D"/>
    <path fill-rule="evenodd" clip-rule="evenodd" d="M16.4715 29.1412c-.9218-1.7894-1.1693-3.5104-.7426-5.163.4267-1.6526 1.5629-2.9441 3.4086-3.8744 1.8458-.9302 3.5699-1.0804 5.1724-.4504 1.6025.6299 2.8646 1.8395 3.7863 3.6289.9217 1.7893 1.1693 3.5103.7426 5.163-.4267 1.6526-1.5629 2.944-3.4087 3.8743-1.8457.9303-3.5698 1.0804-5.1723.4505s-2.8646-1.8396-3.7863-3.6289z" fill="#FF004D"/>
    <path fill-rule="evenodd" clip-rule="evenodd" d="M27.7838 39.5489c-.9217-1.7893-1.1684-3.5107-.7402-5.1642.4283-1.6534 1.5668-2.946 3.4154-3.8777 1.8486-.9317 3.5749-1.083 5.179-.4539 1.6041.6292 2.867 1.8384 3.7887 3.6278.9217 1.7893 1.1685 3.5107.7402 5.1641-.4283 1.6535-1.5667 2.9461-3.4154 3.8778-1.8486.9317-3.5749 1.083-5.179.4538-1.6041-.6291-2.8669-1.8383-3.7887-3.6277z" fill="#FFA300"/>
</svg>
